<?xml version="1.0" encoding="utf-8"?>
<!-- Generator: Adobe Illustrator 19.2.1, SVG Export Plug-In . SVG Version: 6.00 Build 0)  -->
<svg version="1.1" xmlns="http://www.w3.org/2000/svg" xmlns:xlink="http://www.w3.org/1999/xlink" x="0px" y="0px"
	 viewBox="0 0 512 512" style="enable-background:new 0 0 512 512;" xml:space="preserve">
<style type="text/css">
	.st0{fill:#2980B9;}
	.st1{fill:#FFFFFF;}
</style>
<g id="Capa_1">
	<g>
		<path class="st0" d="M479.3,0H32.7C14.7,0,0,14.6,0,32.7v446.6c0,18,14.6,32.7,32.7,32.7h446.6c18.1,0,32.7-14.7,32.7-32.7V32.7
			C512,14.6,497.4,0,479.3,0z M152,296.8c10.8,0,19.2-1.8,26-4.5l5.4,33.5c-8.1,3.6-23.4,6.6-40.8,6.6c-47.3,0-77.6-28.7-77.6-74.9
			c0-42.8,29.3-77.9,83.9-77.9c12,0,25.2,2.1,34.8,5.7l-7.2,33.8c-5.4-2.4-13.5-4.5-25.5-4.5c-24,0-39.6,17.1-39.3,41
			C111.8,282.6,129.8,296.8,152,296.8z M247.7,332.4c-19.2,0-36.3-4.2-47.4-10.2l8.1-32.6c8.4,5.1,25.8,11.1,39.3,11.1
			c13.8,0,19.4-4.8,19.4-12.3c0-7.5-4.5-11.1-21.6-16.8c-30.3-10.2-41.9-26.6-41.6-44c0-27.3,23.4-47.9,59.6-47.9
			c17.1,0,32.3,3.9,41.3,8.4l-8.1,31.5c-6.6-3.6-19.2-8.4-31.8-8.4c-11.1,0-17.3,4.5-17.3,12c0,6.9,5.6,10.5,23.6,16.8
			c27.9,9.6,39.5,23.7,39.8,45.2C311.1,312.3,289.5,332.4,247.7,332.4z M377.7,332.4c-19.2,0-36.3-4.2-47.4-10.2l8.1-32.6
			c8.4,5.1,25.8,11.1,39.3,11.1c13.8,0,19.4-4.8,19.4-12.3c0-7.5-4.5-11.1-21.6-16.8c-30.3-10.2-41.9-26.6-41.6-44
			c0-27.3,23.3-47.9,59.6-47.9c17.1,0,32.3,3.9,41.3,8.4l-8.1,31.5c-6.6-3.6-19.2-8.4-31.8-8.4c-11.1,0-17.3,4.5-17.3,12
			c0,6.9,5.6,10.5,23.6,16.8c27.9,9.6,39.5,23.7,39.8,45.2C441.2,312.3,419.6,332.4,377.7,332.4z"/>
	</g>
</g>
<g id="Capa_2">
	<path class="st1" d="M152,296.8c10.8,0,19.2-1.8,26-4.5l5.4,33.5c-8.1,3.6-23.4,6.6-40.8,6.6c-47.3,0-77.6-28.7-77.6-74.9
		c0-42.8,29.3-77.9,83.9-77.9c12,0,25.2,2.1,34.8,5.7l-7.2,33.8c-5.4-2.4-13.5-4.5-25.5-4.5c-24,0-39.6,17.1-39.3,41
		C111.8,282.6,129.8,296.8,152,296.8z"/>
	<path class="st1" d="M247.7,332.4c-19.2,0-36.3-4.2-47.4-10.2l8.1-32.6c8.4,5.1,25.8,11.1,39.3,11.1c13.8,0,19.4-4.8,19.4-12.3
		c0-7.5-4.5-11.1-21.6-16.8c-30.3-10.2-41.9-26.6-41.6-44c0-27.3,23.4-47.9,59.6-47.9c17.1,0,32.3,3.9,41.3,8.4l-8.1,31.5
		c-6.6-3.6-19.2-8.4-31.8-8.4c-11.1,0-17.3,4.5-17.3,12c0,6.9,5.6,10.5,23.6,16.8c27.9,9.6,39.5,23.7,39.8,45.2
		C311.1,312.3,289.5,332.4,247.7,332.4z"/>
	<path class="st1" d="M377.7,332.4c-19.2,0-36.3-4.2-47.4-10.2l8.1-32.6c8.4,5.1,25.8,11.1,39.3,11.1c13.8,0,19.4-4.8,19.4-12.3
		c0-7.5-4.5-11.1-21.6-16.8c-30.3-10.2-41.9-26.6-41.6-44c0-27.3,23.3-47.9,59.6-47.9c17.1,0,32.3,3.9,41.3,8.4l-8.1,31.5
		c-6.6-3.6-19.2-8.4-31.8-8.4c-11.1,0-17.3,4.5-17.3,12c0,6.9,5.6,10.5,23.6,16.8c27.9,9.6,39.5,23.7,39.8,45.2
		C441.2,312.3,419.6,332.4,377.7,332.4z"/>
</g>
</svg>
